name D:\school\WTK\thesis\model\3dpredictsim\Results\Batchsim_tmt_linear_v2\Pog_s1_tmt_bCst_d05_k1000_ig24.mot
datacolumns 128
datarows 4
range 0.00000000 0.03149745
endheader
time	pelvis_tilt	pelvis_list	pelvis_rotation	pelvis_tx	pelvis_ty	pelvis_tz	hip_flexion_l	hip_adduction_l	hip_rotation_l	hip_flexion_r	hip_adduction_r	hip_rotation_r	knee_angle_l	knee_angle_r	ankle_angle_l	ankle_angle_r	subtalar_angle_l	subtalar_angle_r	tmt_angle_l	tmt_angle_r	mtp_angle_l	mtp_angle_r	lumbar_extension	lumbar_bending	lumbar_rotation	arm_flex_l	arm_add_l	arm_rot_l	arm_flex_r	arm_add_r	arm_rot_r	elbow_flex_l	elbow_flex_r	pro_sup_l	pro_sup_r	glut_med1_l/activation	glut_med2_l/activation	glut_med3_l/activation	glut_min1_l/activation	glut_min2_l/activation	glut_min3_l/activation	semimem_l/activation	semiten_l/activation	bifemlh_l/activation	bifemsh_l/activation	sar_l/activation	add_long_l/activation	add_brev_l/activation	add_mag1_l/activation	add_mag2_l/activation	add_mag3_l/activation	tfl_l/activation	pect_l/activation	grac_l/activation	glut_max1_l/activation	glut_max2_l/activation	glut_max3_l/activation	iliacus_l/activation	psoas_l/activation	quad_fem_l/activation	gem_l/activation	peri_l/activation	rect_fem_l/activation	vas_med_l/activation	vas_int_l/activation	vas_lat_l/activation	med_gas_l/activation	lat_gas_l/activation	soleus_l/activation	tib_post_l/activation	flex_dig_l/activation	flex_hal_l/activation	tib_ant_l/activation	per_brev_l/activation	per_long_l/activation	per_tert_l/activation	ext_dig_l/activation	ext_hal_l/activation	ercspn_l/activation	intobl_l/activation	extobl_l/activation	glut_med1_r/activation	glut_med2_r/activation	glut_med3_r/activation	glut_min1_r/activation	glut_min2_r/activation	glut_min3_r/activation	semimem_r/activation	semiten_r/activation	bifemlh_r/activation	bifemsh_r/activation	sar_r/activation	add_long_r/activation	add_brev_r/activation	add_mag1_r/activation	add_mag2_r/activation	add_mag3_r/activation	tfl_r/activation	pect_r/activation	grac_r/activation	glut_max1_r/activation	glut_max2_r/activation	glut_max3_r/activation	iliacus_r/activation	psoas_r/activation	quad_fem_r/activation	gem_r/activation	peri_r/activation	rect_fem_r/activation	vas_med_r/activation	vas_int_r/activation	vas_lat_r/activation	med_gas_r/activation	lat_gas_r/activation	soleus_r/activation	tib_post_r/activation	flex_dig_r/activation	flex_hal_r/activation	tib_ant_r/activation	per_brev_r/activation	per_long_r/activation	per_tert_r/activation	ext_dig_r/activation	ext_hal_r/activation	ercspn_r/activation	intobl_r/activation	extobl_r/activation	
          0.00000000	         -2.11433388	          0.92780809	          4.45924638	          0.00000000	          0.87405876	         -0.00184054	        -18.54981426	          1.58306003	          5.18300782	         25.90492567	         -0.30879156	         -2.64484318	         -3.82236459	         -7.62828728	         -7.54971372	          7.04370141	          6.06672716	          3.82514121	          1.10210611	          0.03179038	         25.42333411	         -0.12101873	         -0.14997526	         -3.23532420	         -1.48332132	          4.13260024	        -13.45857274	         12.31520219	         -7.56632346	        -13.45228027	         15.16294879	         21.52990674	         15.91744165	         86.51662706	         86.51662706	          0.31097033	          0.09530179	          0.08110879	          0.28335562	          0.16713662	          0.09530197	          0.05000041	          0.05000006	          0.05000006	          0.05000009	          0.10013468	          0.05000001	          0.05000002	          0.05000004	          0.05000021	          0.05000024	          0.24314333	          0.05000008	          0.05000007	          0.05874646	          0.05009438	          0.05000082	          0.38770205	          0.67460818	          0.05000009	          0.05874876	          0.08110825	          0.29466545	          0.05011199	          0.05775424	          0.05003872	          0.19911153	          0.29222720	          0.20256822	          0.22330898	          0.20509698	          0.29002674	          0.05000001	          0.07298623	          0.12968987	          0.05000008	          0.05000002	          0.05000009	          0.05000000	          0.05000000	          0.05000000	          0.05000006	          0.06902936	          0.08617249	          0.05000006	          0.05000011	          0.05000149	          0.08299283	          0.06902963	          0.11913924	          0.05905949	          0.05000018	          0.05000013	          0.05152909	          0.11720028	          0.12264646	          0.12573973	          0.05000153	          0.05000037	          0.08110362	          0.05874949	          0.05874974	          0.12746858	          0.05000001	          0.05000003	          0.05874935	          0.05000019	          0.05000035	          0.05000002	          0.05000010	          0.05000010	          0.05000009	          0.05000001	          0.05000003	          0.05000000	          0.05773707	          0.05874938	          0.05874935	          0.42279492	          0.26399652	          0.18717156	          0.15039952	          0.44044354	          0.23486731	          0.05637665	          0.16179448	          0.14979556	
          0.01049915	         -2.10573565	          0.99601903	          4.62741992	          0.01598747	          0.87285271	         -0.00173998	        -18.50313470	          1.46656182	          4.95863341	         25.45286333	         -0.17732736	         -2.43496944	         -5.65025804	         -7.46576429	         -8.14761707	          6.65345597	          6.99111501	          3.40772525	          1.05393484	          0.03675528	         26.41867240	         -0.09280228	          0.03114827	         -3.08773449	         -1.53371532	          4.01042722	        -13.47547843	         12.56733775	         -8.62682390	        -13.44998784	         15.10327240	         22.27342440	         15.93021626	         86.51662706	         86.51662706	          0.26465888	          0.08110889	          0.06902960	          0.24115667	          0.14224567	          0.08110905	          0.05000016	          0.05000004	          0.05000003	          0.05000007	          0.08522215	          0.11636459	          0.05458765	          0.05000155	          0.05000093	          0.05000015	          0.20693302	          0.08480986	          0.05000315	          0.05000048	          0.05000027	          0.05000033	          0.32996321	          0.61151305	          0.05724388	          0.05000019	          0.06902915	          0.25078213	          0.10728438	          0.10822162	          0.08165667	          0.16945867	          0.24870703	          0.19972727	          0.20520518	          0.17455517	          0.24683515	          0.05000000	          0.06281110	          0.13383345	          0.05000005	          0.05000001	          0.05000004	          0.05000001	          0.05000002	          0.05004897	          0.05874929	          0.05874935	          0.22753214	          0.05874948	          0.05874938	          0.05874914	          0.07063307	          0.05874935	          0.10139646	          0.05026405	          0.05000036	          0.09530213	          0.15470584	          0.09974665	          0.16150330	          0.15289705	          0.05000004	          0.06952679	          0.06902534	          0.05000020	          0.05000040	          0.17137864	          0.05874931	          0.05000040	          0.05000006	          0.11896987	          0.09994814	          0.05051925	          0.17396774	          0.18382648	          0.14755608	          0.05000011	          0.05000011	          0.05499791	          0.05000000	          0.05000010	          0.05000009	          0.55416290	          0.27843460	          0.15929694	          0.41961220	          0.52925050	          0.33448025	          0.05000003	          0.13769909	          0.12748712	
          0.02099830	         -2.08988866	          1.04743648	          4.77045415	          0.03229169	          0.87161214	         -0.00163142	        -18.33247886	          1.33576253	          4.72650007	         24.92591990	         -0.05056184	         -2.19882593	         -7.71757462	         -7.90011389	         -8.77488525	          5.96444774	          7.92851932	          2.99844238	          0.97064757	          0.03369547	         27.19430703	         -0.04861215	          0.23653471	         -2.90650257	         -1.57852001	          3.81129838	        -13.49783883	         12.78985001	         -9.71254435	        -13.45145331	         15.04310666	         23.01212325	         15.96410654	         86.51662706	         86.51662706	          0.22524433	          0.06902968	          0.05874932	          0.20524224	          0.12106162	          0.06902983	          0.05000175	          0.05000012	          0.05000022	          0.05000003	          0.07253042	          0.17924097	          0.16985440	          0.05877355	          0.05871973	          0.05874982	          0.17611535	          0.07217959	          0.05000036	          0.05312350	          0.05874862	          0.05874916	          0.28082314	          0.53442547	          0.05874928	          0.05874936	          0.05874925	          0.21343418	          0.15272361	          0.15459558	          0.15459444	          0.14422188	          0.21166811	          0.16998273	          0.17464487	          0.14855952	          0.21007509	          0.05000001	          0.05345692	          0.14236490	          0.05000003	          0.05000001	          0.05000006	          0.05000002	          0.06902956	          0.06902967	          0.05000001	          0.05000011	          0.19364674	          0.05000017	          0.05000009	          0.05000008	          0.06011398	          0.05000007	          0.08629590	          0.05000000	          0.05000006	          0.08110920	          0.13166615	          0.22075277	          0.18501369	          0.15090509	          0.05874983	          0.05917257	          0.05874581	          0.09815540	          0.10187472	          0.14585597	          0.05000004	          0.05000020	          0.18085870	          0.10125221	          0.08506329	          0.06902960	          0.20231410	          0.22541474	          0.16371278	          0.05000002	          0.05000006	          0.05000000	          0.05874940	          0.06902944	          0.06902937	          0.47163369	          0.32630037	          0.19144304	          0.35712113	          0.45043146	          0.28466748	          0.05000000	          0.11719213	          0.10850099	
          0.03149745	         -2.06867466	          1.08095690	          4.88791025	          0.04879395	          0.87030714	         -0.00152901	        -18.06163777	          1.19358694	          4.48776814	         24.28432269	          0.03771182	         -1.95380657	         -9.96702526	         -8.65463895	         -9.39125552	          5.39357281	          8.84489061	          2.57252679	          0.84787479	         -0.01347882	         27.57377743	         -0.18625489	          0.45496120	         -2.69404743	         -1.61400188	          3.55274640	        -13.52284304	         12.97320512	        -10.79599881	        -13.46143696	         15.02433265	         23.74964301	         15.99410795	         86.51662706	         86.51662706	          0.26087677	          0.05874938	          0.05000003	          0.21465812	          0.10303242	          0.05874951	          0.05000072	          0.05000007	          0.05000005	          0.05000012	          0.06172917	          0.16704073	          0.16051364	          0.05002079	          0.05000061	          0.05000054	          0.14988724	          0.09221253	          0.05000034	          0.05000023	          0.05000018	          0.05000022	          0.23900132	          0.49792942	          0.05000003	          0.05000011	          0.05000002	          0.18164830	          0.12997913	          0.13157232	          0.13157135	          0.12274351	          0.18014525	          0.14466790	          0.14863574	          0.12643521	          0.17878951	          0.05000001	          0.12558249	          0.13773790	          0.05000012	          0.11148847	          0.05000009	          0.05000012	          0.05874927	          0.05874937	          0.21733051	          0.23003602	          0.35820569	          0.28564186	          0.21812241	          0.20815591	          0.07446817	          0.05000043	          0.08755303	          0.08110886	          0.05875065	          0.06902995	          0.11205766	          0.18787699	          0.15746038	          0.14594143	          0.05000051	          0.05036043	          0.05000013	          0.15553940	          0.14116056	          0.12413459	          0.05807859	          0.05000023	          0.15392417	          0.08617348	          0.20977090	          0.05874931	          0.17218430	          0.19184465	          0.13933172	          0.05000009	          0.05000040	          0.05000005	          0.05000010	          0.05874932	          0.05874929	          0.55132746	          0.34093045	          0.17454702	          0.42276357	          0.55471942	          0.34674909	          0.05000001	          0.09973919	          0.09234238	
